HIERARCHY
ROOT Hips
{
	OFFSET -0.001795 -0.223333 0.028219
	CHANNELS 6 Xposition Yposition Zposition Zrotation Yrotation Xrotation 
	JOINT LeftUpLeg
	{
		OFFSET 0.069520 -0.091406 -0.006815
		CHANNELS 3 Zrotation Yrotation Xrotation
		JOINT LeftLeg
		{
			OFFSET 0.034277 -0.375199 -0.004496
			CHANNELS 3 Zrotation Yrotation Xrotation
			JOINT LeftFoot
			{
				OFFSET -0.013596 -0.397961 -0.043693
				CHANNELS 3 Zrotation Yrotation Xrotation
				JOINT LeftToe
				{
					OFFSET 0.026358 -0.055791 0.119288
					CHANNELS 3 Zrotation Yrotation Xrotation
					End Site
					{
						OFFSET 0.000000 0.000000 0.000000
					}
				}
			}
		}
	}
	JOINT RightUpLeg
	{
		OFFSET -0.067670 -0.090522 -0.004320
		CHANNELS 3 Zrotation Yrotation Xrotation
		JOINT RightLeg
		{
			OFFSET -0.038290 -0.382569 -0.008850
			CHANNELS 3 Zrotation Yrotation Xrotation
			JOINT RightFoot
			{
				OFFSET 0.015774 -0.398415 -0.042312
				CHANNELS 3 Zrotation Yrotation Xrotation
				JOINT RightToe
				{
					OFFSET -0.025372 -0.048144 0.123348
					CHANNELS 3 Zrotation Yrotation Xrotation
					End Site
					{
						OFFSET 0.000000 0.000000 0.000000
					}
				}
			}
		}
	}
	JOINT Spine
	{
		OFFSET -0.002533 0.108963 -0.026696
		CHANNELS 3 Zrotation Yrotation Xrotation
		JOINT Spine1
		{
			OFFSET 0.005487 0.135180 0.001092
			CHANNELS 3 Zrotation Yrotation Xrotation
			JOINT Spine2
			{
				OFFSET 0.001457 0.052922 0.025425
				CHANNELS 3 Zrotation Yrotation Xrotation
				JOINT Neck
				{
					OFFSET -0.002778 0.213870 -0.042857
					CHANNELS 3 Zrotation Yrotation Xrotation
					JOINT Head
					{
						OFFSET 0.005152 0.064970 0.051349
						CHANNELS 3 Zrotation Yrotation Xrotation
						End Site
						{
							OFFSET 0.000000 0.000000 0.000000
						}
					}
				}
				JOINT LeftShoulder
				{
					OFFSET 0.078845 0.121749 -0.034090
					CHANNELS 3 Zrotation Yrotation Xrotation
					JOINT LeftArm
					{
						OFFSET 0.090977 0.030469 -0.008868
						CHANNELS 3 Zrotation Yrotation Xrotation
						JOINT LeftForeArm
						{
							OFFSET 0.259612 -0.012772 -0.027456
							CHANNELS 3 Zrotation Yrotation Xrotation
							JOINT LeftHand
							{
								OFFSET 0.249234 0.008986 -0.001171
								CHANNELS 3 Zrotation Yrotation Xrotation
								End Site
								{
									OFFSET 0.000000 0.000000 0.000000
								}
							}
						}
					}
				}
				JOINT RightShoulder
				{
					OFFSET -0.081759 0.118833 -0.038615
					CHANNELS 3 Zrotation Yrotation Xrotation
					JOINT RightArm
					{
						OFFSET -0.096012 0.032551 -0.009143
						CHANNELS 3 Zrotation Yrotation Xrotation
						JOINT RightForeArm
						{
							OFFSET -0.253742 -0.013329 -0.021401
							CHANNELS 3 Zrotation Yrotation Xrotation
							JOINT RightHand
							{
								OFFSET -0.255298 0.007772 -0.005559
								CHANNELS 3 Zrotation Yrotation Xrotation
								End Site
								{
									OFFSET 0.000000 0.000000 0.000000
								}
							}
						}
					}
				}
			}
		}
	}
}
MOTION
Frames: 10
Frame Time: 0.050000
0.000000 0.948274 0.000000 -1.881646 0.975622 4.505616 6.734118 -0.290247 -3.608733 1.349857 0.073964 -4.752469 1.562610 7.054426 11.196810 0.000000 0.000000 0.000000 -3.625906 0.538976 -6.099291 -0.717447 0.041126 -0.764989 -0.868650 -5.965296 10.213432 0.000000 0.000000 0.000000 1.361074 0.071376 -1.995203 -0.031156 0.114295 -3.376405 -0.038911 0.121469 4.169388 1.823886 -0.539819 -9.028595 0.000000 0.000000 0.000000 -18.510821 0.720174 -2.339398 -52.654036 -6.875365 -3.189699 -14.007233 -19.564066 3.107362 0.000000 0.000000 0.000000 16.406673 -1.025310 -1.916625 57.213525 5.439298 -2.892577 9.562923 17.441067 1.866260 0.000000 0.000000 0.000000 
0.000054 0.947060 0.000294 -2.102768 -0.436765 4.961036 6.181053 -0.266741 -3.193893 2.926268 -0.001624 -5.267779 2.013880 7.554487 10.840864 0.000000 0.000000 0.000000 -3.828248 0.590119 -6.706305 -0.109799 0.006891 -0.109230 0.024085 -4.096538 9.474990 0.000000 0.000000 0.000000 1.519001 0.084735 -2.273578 -0.989746 0.522987 -3.549329 0.946700 0.613739 3.810844 1.336660 -0.270648 -8.631528 0.000000 0.000000 0.000000 -19.076544 1.746388 -2.849049 -52.432586 -6.556712 -3.291282 -14.853864 -19.928926 3.336194 0.000000 0.000000 0.000000 15.406666 -1.224444 -2.024049 58.297283 4.773362 -3.213650 10.323903 18.053106 2.028471 0.000000 0.000000 0.000000 
0.000010 0.947016 0.000263 -1.966289 0.568892 4.969162 6.062345 -0.290772 -3.486345 3.190773 -0.052654 -4.639626 1.390978 6.520304 10.468042 0.000000 0.000000 0.000000 -3.871380 0.595596 -6.919644 -0.329832 0.065187 0.722637 -0.757355 -5.312932 8.699901 0.000000 0.000000 0.000000 1.172804 0.072358 -2.015701 -0.196277 0.225359 -5.024802 -0.025262 0.132336 4.347514 1.848918 -0.649077 -8.237664 0.000000 0.000000 0.000000 -18.319475 1.344607 -2.590043 -52.816378 -5.995263 -3.604086 -14.789474 -19.529270 3.247824 0.000000 0.000000 0.000000 17.003111 -0.461937 -1.727841 57.080398 4.010411 -3.577439 9.297562 17.705964 1.855985 0.000000 0.000000 0.000000 
-0.000136 0.946743 0.000221 -2.318818 0.256828 5.301838 6.417640 -0.307300 -3.962683 3.227507 -0.052722 -4.691793 1.695236 7.063275 10.717137 0.000000 0.000000 0.000000 -3.836535 0.672959 -7.976748 0.103763 0.046359 1.484519 -0.630339 -5.080567 8.688418 0.000000 0.000000 0.000000 1.123165 0.072945 -2.035792 -0.810354 0.472648 -4.696639 1.118398 -0.726110 3.432619 1.527082 -0.587891 -7.195429 0.000000 0.000000 0.000000 -18.179069 2.461006 -2.893825 -53.522722 -6.153533 -3.523995 -14.479014 -19.049274 3.157755 0.000000 0.000000 0.000000 16.108239 -0.223607 -1.813822 57.111433 3.690554 -3.618756 10.479004 17.506297 1.943341 0.000000 0.000000 0.000000 
-0.000356 0.946697 0.000166 -2.260738 0.918604 5.168327 6.259755 -0.318348 -4.052211 3.455177 -0.072171 -4.576186 1.357802 6.542451 10.610244 0.000000 0.000000 0.000000 -3.780062 0.658340 -7.831850 0.027038 0.049144 1.337479 -0.904528 -5.579728 8.707949 0.000000 0.000000 0.000000 0.954949 0.071310 -1.977831 -0.347462 0.279372 -4.462846 0.679027 -1.061482 3.416905 1.322680 -0.453873 -6.995428 0.000000 0.000000 0.000000 -18.193484 2.339693 -2.860320 -53.535284 -6.611352 -3.319403 -14.737171 -18.548627 3.107430 0.000000 0.000000 0.000000 16.213500 -0.464206 -1.921983 57.156814 3.795429 -3.572741 10.815616 17.401535 1.978629 0.000000 0.000000 0.000000 
-0.000444 0.947073 0.000206 -2.391862 0.716753 5.212492 6.196603 -0.315893 -4.030841 3.818657 -0.084598 -4.761217 1.531602 6.929247 11.032516 0.000000 0.000000 0.000000 -3.646125 0.693068 -8.249181 -0.057701 0.067074 1.535196 -0.695914 -5.225206 8.868059 0.000000 0.000000 0.000000 0.858717 0.079269 -2.119111 -0.269914 0.246631 -4.563317 0.940299 -1.195290 3.593209 1.391505 -0.578946 -6.309712 0.000000 0.000000 0.000000 -18.405096 2.576888 -2.939451 -53.972093 -6.596192 -3.376458 -14.235236 -18.168482 2.973308 0.000000 0.000000 0.000000 16.014049 -0.444774 -1.945784 57.412591 4.067845 -3.478224 10.658448 16.778822 1.870461 0.000000 0.000000 0.000000 
-0.000460 0.947086 0.000352 -2.318977 0.806365 5.192825 6.012882 -0.315377 -3.960022 3.906876 -0.076414 -4.959644 1.540481 7.051391 11.384802 0.000000 0.000000 0.000000 -3.581129 0.691928 -8.212572 -0.271925 0.091360 1.507095 -0.657720 -5.124550 8.829409 0.000000 0.000000 0.000000 0.715714 0.079116 -2.092405 -0.254863 0.234784 -4.308500 0.888170 -1.666676 3.595966 1.367533 -0.568509 -6.494473 0.000000 0.000000 0.000000 -18.598580 2.760074 -2.965701 -53.980788 -6.562935 -3.405363 -14.076272 -17.907616 2.918413 0.000000 0.000000 0.000000 16.078145 -0.156889 -1.895569 57.445379 4.160706 -3.433937 10.647465 16.790347 1.857709 0.000000 0.000000 0.000000 
-0.000423 0.947127 0.000523 -2.395865 0.697670 5.235579 5.904361 -0.314040 -3.928322 4.065158 -0.078952 -5.073561 1.748146 7.363944 11.323615 0.000000 0.000000 0.000000 -3.431731 0.704970 -8.301773 -0.416686 0.110132 1.543681 -0.692310 -5.186668 8.762854 0.000000 0.000000 0.000000 0.641172 0.076884 -2.028793 -0.193878 0.208046 -4.330069 0.813740 -1.716746 3.571002 1.517491 -0.714324 -6.082399 0.000000 0.000000 0.000000 -18.545646 2.675716 -2.894835 -54.105203 -6.593340 -3.397911 -13.870212 -17.587011 2.833841 0.000000 0.000000 0.000000 16.190739 -0.265915 -1.983591 57.650362 4.316691 -3.369343 10.610414 16.282493 1.786971 0.000000 0.000000 0.000000 
-0.000486 0.947021 0.000748 -2.425168 0.770667 5.354081 5.943783 -0.317121 -3.945428 3.978731 -0.057645 -5.298668 1.759290 7.428024 11.469816 0.000000 0.000000 0.000000 -3.395032 0.708740 -8.327509 -0.364246 0.096004 1.358042 -0.724697 -5.267689 8.832659 0.000000 0.000000 0.000000 0.485375 0.082656 -2.131645 -0.185274 0.201301 -4.183506 0.959575 -2.065426 3.414314 1.398688 -0.652777 -5.971546 0.000000 0.000000 0.000000 -18.426058 2.633399 -2.785536 -54.324016 -6.549325 -3.420044 -13.528035 -17.085972 2.706241 0.000000 0.000000 0.000000 16.185527 -0.179922 -2.016553 57.551789 4.419691 -3.294545 10.354503 15.917920 1.699672 0.000000 0.000000 0.000000 
-0.000608 0.946836 0.001028 -2.422817 0.793095 5.403898 6.009495 -0.314256 -3.855821 3.816126 -0.037678 -5.449409 1.933232 7.685880 11.363150 0.000000 0.000000 0.000000 -3.358042 0.723277 -8.512854 -0.491662 0.115735 1.468141 -0.635342 -5.052926 8.744811 0.000000 0.000000 0.000000 0.401255 0.090709 -2.299619 -0.168637 0.188130 -3.949533 0.926273 -2.260095 3.287357 1.125277 -0.483276 -5.695308 0.000000 0.000000 0.000000 -18.198631 2.726681 -2.774469 -54.474149 -6.562638 -3.409373 -13.657899 -17.025171 2.720390 0.000000 0.000000 0.000000 16.134490 0.036394 -1.942508 57.538118 4.397012 -3.289806 10.291706 15.828086 1.675275 0.000000 0.000000 0.000000 
